<svg viewBox="0 0 1000 43" width="1000" height="43" xmlns="http://www.w3.org/2000/svg" xmlns:bx="https://boxy-svg.com"><path d="M469.2 16.06l-12.13 9.2 4.4 14.57-12.5-8.7-12.5 8.7 4.42-14.57-12.14-9.2 15.23-.31 5-14.39 5 14.39z" bx:shape="star 468 338 21.268 21.268 0.4 5 1@0a2d5731" fill="#fff"/><path d="M567.39 16.06l-12.14 9.2 4.41 14.57-12.5-8.7-12.5 8.7 4.41-14.57-12.14-9.2 15.23-.32 5-14.38 5 14.39zM518.3 16.06l-12.14 9.2 4.4 14.57-12.5-8.7-12.5 8.7 4.42-14.57-12.14-9.2 15.23-.32 5-14.38 5 14.39z" fill="#fff"/><path stroke="#fff" d="M.4 24h421.29M576.18 24h421.29"/></svg>
